<?xml version="1.0" encoding="UTF-8"?>
<svg id="katman_2" data-name="katman 2" xmlns="http://www.w3.org/2000/svg" viewBox="0 0 302.36 91.32">
  <defs>
    <style>
      .cls-1 {
        fill: #fff;
      }
    </style>
  </defs>
  <g id="katman_1" data-name="katman 1">
    <g>
      <path class="cls-1" d="M102.76,61.77l8.92-7.43,9.15-7.23c0-3.79-.73-7.04-2.2-9.75-1.47-2.74-3.47-4.98-6.02-6.72-2.52-1.74-5.41-3.03-8.68-3.86-3.24-.83-6.63-1.25-10.17-1.25-5.09,0-9.57.77-13.45,2.32-3.85,1.52-6.99,3.71-9.42,6.56-2.44,2.82-4.07,6.17-4.9,10.05l16.35,1.33c.61-2.1,1.85-3.85,3.74-5.23,1.88-1.41,4.41-2.12,7.6-2.12,3.02,0,5.34.72,6.97,2.16,1.66,1.44,2.49,3.47,2.49,6.1v.25c0,1.36-.51,2.38-1.54,3.07-1.02.69-2.67,1.22-4.94,1.58-2.27.33-5.26.69-8.97,1.08-3.15.3-6.17.83-9.05,1.58-2.85.75-5.4,1.85-7.64,3.32-2.24,1.47-4.01,3.4-5.31,5.81-1.3,2.41-1.95,5.38-1.95,8.92,0,4.21.91,7.72,2.74,10.54,1.85,2.8,4.37,4.91,7.55,6.35,3.18,1.41,6.81,2.12,10.88,2.12,3.15,0,5.94-.42,8.34-1.25,2.41-.86,4.47-2.03,6.18-3.53,1.72-1.52,3.09-3.28,4.11-5.27h.5v8.84h16.77v-19.1h-18.17c-.28.81-.62,1.6-1.09,2.33-1.13,1.77-2.7,3.18-4.69,4.23-1.99,1.02-4.29,1.54-6.89,1.54s-4.95-.62-6.72-1.87c-1.74-1.27-2.62-3.11-2.62-5.52,0-1.66.43-3.04,1.29-4.15.86-1.13,2.06-2.03,3.61-2.7,1.55-.66,3.36-1.15,5.44-1.45,1.05-.15,1.07-.13,3.24-.46,1.89-.29,2.83-.49,3.57-.62s4.97-.57,4.97-.57Z"/>
      <g>
        <path class="cls-1" d="M198.38,24.86c8.73-.82,19.12,2.55,25.02,9.15,7.08,7.92,8.16,17.77,7.68,27.87l-30.87-.02c-.08-3.49-.02-7.2-.02-10.7l15.71-.09c-2.53-13.06-12.07-16.54-23.86-11.42-2.4-3.63-5.21-7.47-7.73-11.07,5.38-2.29,8.24-3.26,14.08-3.72Z"/>
        <path class="cls-1" d="M169.19,61.9c4.86-.13,10.22-.05,15.11-.06,1.16,6.49,4.11,12.5,10.7,14.62,9.01,2.89,17.31,1.02,20.72-8.23,4.62,1.97,9.21,4,13.77,6.1l-2.45,4.46c-.23.36-.47.71-.72,1.06-13.45,18.53-48.22,13.82-55-8.35-1.1-3.6-1.59-5.9-2.13-9.59Z"/>
      </g>
      <g>
        <polygon class="cls-1" points="135.67 50.5 153.68 50.5 153.68 50.5 162.34 50.5 162.34 35.42 153.68 35.42 153.68 24.6 135.67 24.6 135.67 35.42 126.78 35.42 126.78 50.5 135.67 50.5 135.67 50.5"/>
        <path class="cls-1" d="M164.25,76.19c-.45.08-1.1.21-1.95.38-.85.14-1.69.21-2.54.21-1.21,0-2.28-.18-3.21-.55-.9-.37-1.61-1-2.11-1.9-.51-.93-.76-2.23-.76-3.89v-8.3h-18.02v10.67c-.03,4.26.86,7.78,2.67,10.57,1.8,2.79,4.33,4.85,7.57,6.17,3.27,1.33,7.08,1.9,11.42,1.73,2.34-.08,4.33-.32,5.96-.72,1.63-.37,2.9-.69,3.81-.97l-2.83-13.41Z"/>
      </g>
      <polygon class="cls-1" points="275.67 52.5 301.07 22.83 279.27 22.83 257.33 48.83 256.3 48.83 256.3 0 237.31 0 237.31 63.7 261.45 63.7 280.12 91.32 302.36 91.32 275.67 52.5"/>
      <polygon class="cls-1" points="38.36 52.5 63.76 22.83 41.96 22.83 20.02 48.83 18.99 48.83 18.99 0 0 0 0 63.7 24.14 63.7 42.81 91.32 65.06 91.32 38.36 52.5"/>
    </g>
  </g>
</svg>